<?xml version="1.0" encoding="UTF-8" standalone="no"?>
<!-- Generator: Adobe Illustrator 16.0.0, SVG Export Plug-In . SVG Version: 6.00 Build 0)  -->

<svg
   xmlns:dc="http://purl.org/dc/elements/1.1/"
   xmlns:cc="http://creativecommons.org/ns#"
   xmlns:rdf="http://www.w3.org/1999/02/22-rdf-syntax-ns#"
   xmlns:svg="http://www.w3.org/2000/svg"
   xmlns="http://www.w3.org/2000/svg"
   xmlns:sodipodi="http://sodipodi.sourceforge.net/DTD/sodipodi-0.dtd"
   xmlns:inkscape="http://www.inkscape.org/namespaces/inkscape"
   version="1.1"
   id="Layer_1"
   x="0px"
   y="0px"
   width="250px"
   height="250px"
   viewBox="0 0 250 250"
   enable-background="new 0 0 250 250"
   xml:space="preserve"
   inkscape:version="0.91 r13725"
   sodipodi:docname="icon-points2.svg"><metadata
   id="metadata15"><rdf:RDF><cc:Work
       rdf:about=""><dc:format>image/svg+xml</dc:format><dc:type
         rdf:resource="http://purl.org/dc/dcmitype/StillImage" /><dc:title></dc:title></cc:Work></rdf:RDF></metadata><defs
   id="defs13" /><sodipodi:namedview
   pagecolor="#ffffff"
   bordercolor="#666666"
   borderopacity="1"
   objecttolerance="10"
   gridtolerance="10"
   guidetolerance="10"
   inkscape:pageopacity="0"
   inkscape:pageshadow="2"
   inkscape:window-width="1536"
   inkscape:window-height="803"
   id="namedview11"
   showgrid="false"
   inkscape:zoom="0.944"
   inkscape:cx="125"
   inkscape:cy="123.94068"
   inkscape:window-x="-8"
   inkscape:window-y="-8"
   inkscape:window-maximized="1"
   inkscape:current-layer="Worry_Free" />
<g
   id="Worry_Free">
	<g
   id="TIcket"
   style="fill:#c0c0c0;fill-opacity:1">
		<polygon
   fill="#F47920"
   points="161.9,85.4 73,109.2 88.1,165.7 177,141.8   "
   id="polygon5"
   style="fill:#c0c0c0;fill-opacity:1" />
		<path
   fill="#F47920"
   d="M190.9,91.8l-7.4-27.4L44,101.7l7.4,27.4c7.9-2.1,16.1,2.6,18.2,10.5c2.1,7.9-2.6,16.1-10.5,18.2l7.5,27.8    L206,148.3l-7.5-27.8c-7.9,2.1-16.1-2.6-18.2-10.5C178.3,102,182.9,93.9,190.9,91.8z M182,144.7l-96.7,25.9L68,106.3l96.7-25.9    L182,144.7z"
   id="path7"
   style="fill:#c0c0c0;fill-opacity:1" />
	</g>
	<path
   fill="#F47920"
   d="M125,0C56,0,0,56,0,125c0,69,56,125,125,125c69,0,125-56,125-125C250,56,194,0,125,0z M125,241.7   C60.6,241.7,8.3,189.4,8.3,125C8.3,60.6,60.6,8.3,125,8.3c64.4,0,116.7,52.2,116.7,116.7C241.7,189.4,189.4,241.7,125,241.7z"
   id="path9"
   style="fill:#c0c0c0;fill-opacity:1" />
</g>
</svg>